<svg id="Layer_1" data-name="Layer 1" xmlns="http://www.w3.org/2000/svg" viewBox="0 0 357.54 357.54">
  <defs>
    <style>
      .cls-1 {
        fill: #fff;
      }
      
    </style>
  </defs>
  <title>1029cafe_white</title>
  <g class="cls2">
    <polygon class="cls-1" points="113.55 220.43 113.55 80.3 85.35 80.3 85.35 88.7 94.11 88.7 94.11 220.43 113.55 220.43"/>
    <path class="cls-1" d="M258.36,186.72a33.41,33.41,0,0,0-3.15-16.29A29.78,29.78,0,0,0,243.83,158q-7.79-4.9-20.58-4.9-27.85,0-31.18,32.23l8.41,1.4q1.76-12,6.82-18.89v35.34q0,31.84-20.67,31.83-21.2-.35-21.19-28V140.2q0-31.49,20.67-31.49,21.19,0,21.19,27.64v15.35c4.84-3.51,11-5.3,18.49-5.3l1,0v-9.68q0-36.08-40.46-36.08-40.29,0-40.29,39.41v66.39q0,36.09,40.46,36.08,40.29,0,40.29-39.41V161a18,18,0,0,1,8.94,4.25,20.12,20.12,0,0,1,5.61,8.84,27.85,27.85,0,0,1,1,11,28.37,28.37,0,0,1-2.89,10.16l-60.14,121h67.09V308.8h-44L254.07,203A39.7,39.7,0,0,0,258.36,186.72Z" transform="translate(-21.23 -21.23)"/>
    <path class="cls-1" d="M300.24,293.13a124.84,124.84,0,0,1-11,13.66q-5.61,6-9.11,9.11H290.6a93.06,93.06,0,0,0,20.06-17.34,109.49,109.49,0,0,0,15-22.16A116.28,116.28,0,0,0,335,251.26,109.33,109.33,0,0,0,338.25,225a77.14,77.14,0,0,0-2.36-19.44,46.51,46.51,0,0,0-7.36-15.94,35.72,35.72,0,0,0-12.61-10.77,39,39,0,0,0-18.13-3.94,43.8,43.8,0,0,0-16.9,3.15,40,40,0,0,0-13.14,8.67A38.44,38.44,0,0,0,259.16,200a48.28,48.28,0,0,0-3.24,16.9V218q0,23,10.42,35.3t30,12.35h3.15a40.17,40.17,0,0,0,8.32-1.84,18.14,18.14,0,0,0,7.45-4.29A54.34,54.34,0,0,1,310,276.66,121.07,121.07,0,0,1,300.24,293.13Zm8.76-38a33.28,33.28,0,0,1-9.46,2.45h-1.05q-7.36,0-12-3.94a27.29,27.29,0,0,1-7.27-9.81,47,47,0,0,1-3.59-12.88,97.89,97.89,0,0,1-1-13.31,67.88,67.88,0,0,1,1.14-12.08,40.15,40.15,0,0,1,3.77-11.39,24.6,24.6,0,0,1,7-8.41,17.43,17.43,0,0,1,10.86-3.33,13.19,13.19,0,0,1,9.37,3.94,34,34,0,0,1,6.92,9.63A55.58,55.58,0,0,1,318,208.26a64,64,0,0,1,1.66,11.82v4.55q0,6.31-.35,12.09a103.67,103.67,0,0,1-1.58,12.44A23.33,23.33,0,0,1,309,255.12Z" transform="translate(-21.23 -21.23)"/>
    <path class="cls-1" d="M252.57,100.71a6.55,6.55,0,0,1,6.34,3.91l4.08-2.08q-3.56-5.82-11.2-5.82-13.63,0-13.63,14.93V135.7q0,13.63,13.63,13.63,11.2,0,12.42-12.68l-4-.7q-.87,9.64-7.38,9.64-6.77-.08-6.77-9.7V111.72Q246.06,100.71,252.57,100.71Z" transform="translate(-21.23 -21.23)"/>
    <path class="cls-1" d="M378.57,191.78A158.11,158.11,0,1,1,327.35,74.56,178.76,178.76,0,1,0,378.77,200C378.77,197.24,378.69,194.5,378.57,191.78Z" transform="translate(-21.23 -21.23)"/>
    <path class="cls-1" d="M268.14,140.11a9.11,9.11,0,0,0,2.57,6.77,9.65,9.65,0,0,0,7.11,2.55q6.17,0,9.35-5.79h.12v5.68h4.87V127.71q0-12-10.72-12c-3.9,0-7.29,1.86-10.33,3.82V124a14.48,14.48,0,0,1,9.91-4q6.27,0,6.26,8.21l-9.11,1.35Q268.14,131.07,268.14,140.11Zm19.15-7.74v3.21a10,10,0,0,1-2.36,6.81,7.61,7.61,0,0,1-6,2.69,5.92,5.92,0,0,1-4.23-1.5,5.05,5.05,0,0,1-1.59-3.86q0-3.24,1.72-4.52a11.46,11.46,0,0,1,5.1-1.78Z" transform="translate(-21.23 -21.23)"/>
    <path class="cls-1" d="M314,101.46a7.46,7.46,0,0,1,3.72.92V97.33a11,11,0,0,0-4.06-.62,10.72,10.72,0,0,0-7.92,3.19,10.47,10.47,0,0,0-3.18,8.12v5.67h-7.86v4.78h7.86l.07,30.83h5.57l-.07-30.83h8.2V113.7h-8.2v-5.39C308.14,103.37,310.1,101.46,314,101.46Z" transform="translate(-21.23 -21.23)"/>
    <polygon class="cls-1" points="309.25 89.1 317.3 78.78 312.2 78.78 305.35 89.1 309.25 89.1"/>
    <path class="cls-1" d="M321.23,120.42q-4.16,4.74-4.16,12.26,0,8,3.81,12.35t10.47,4.39a18.08,18.08,0,0,0,11-3.64v-4.29a15.21,15.21,0,0,1-9.76,3.59,9.61,9.61,0,0,1-7.43-2.93q-2.7-2.93-2.82-8.31h22.2v-2.71q0-7.27-3.38-11.36t-9.55-4.09A13.2,13.2,0,0,0,321.23,120.42Zm16,2.09a10.68,10.68,0,0,1,2.1,7h-17a12,12,0,0,1,3.07-6.83,8,8,0,0,1,6-2.61A7.08,7.08,0,0,1,337.22,122.51Z" transform="translate(-21.23 -21.23)"/>
  </g>
</svg>
