<svg id="图层_1" data-name="图层 1" xmlns="http://www.w3.org/2000/svg" viewBox="0 0 2112.42 1201.81">
  <defs>
    <style>
      .cls-1 {
        fill: #5a4a42;
      }
    </style>
  </defs>
  <title>1029cafe</title>
  <path class="cls-1" d="M2511.58,202.88l8.23,37.86h-4.95L2512,226.12h-4l-3,14.63h-4.74l8.21-37.86Zm-1.66,11.29-1.72,8.8h3.38Z" transform="translate(-407.39 -112.9)"/>
  <g>
    <polygon class="cls-1" points="381.68 740.93 381.68 269.9 286.89 269.9 286.89 298.17 316.33 298.17 316.33 740.93 381.68 740.93"/>
    <path class="cls-1" d="M1204.48,669.17a112.31,112.31,0,0,0-10.6-54.75q-12.07-25.31-38.27-41.8t-69.18-16.49q-93.61,0-104.8,108.34l28.26,4.7q5.91-40.39,22.93-63.51V724.44q0,107-69.48,107-71.25-1.17-71.24-94.07V512.78q0-105.84,69.48-105.84,71.23,0,71.24,92.9v51.59c16.25-11.81,36.91-17.82,62.15-17.82,1.09,0,2.13.06,3.2.08V501.15q0-121.29-136-121.29-135.44,0-135.43,132.48V735.48q0,121.3,136,121.29,135.42,0,135.42-132.47V582.76q18.85,3.83,30.06,14.28a67.62,67.62,0,0,1,18.84,29.73,93.63,93.63,0,0,1,3.24,37.1q-2.07,19.43-9.72,34.15l-202.14,406.8H1164v-25.31H1016.18l173.88-355.58A133.45,133.45,0,0,0,1204.48,669.17Z" transform="translate(-407.39 -112.9)"/>
    <path class="cls-1" d="M1345.23,1026.83a419.64,419.64,0,0,1-37.09,45.93q-18.85,20-30.62,30.62h35.33a312.82,312.82,0,0,0,67.42-58.29,368,368,0,0,0,50.34-74.49,390.85,390.85,0,0,0,31.5-84.48A367.49,367.49,0,0,0,1473,797.8a259.3,259.3,0,0,0-7.95-65.36q-7.94-30.62-24.73-53.58a120.07,120.07,0,0,0-42.4-36.21q-25.6-13.24-60.94-13.24-31.21,0-56.81,10.59A134.36,134.36,0,0,0,1236,669.14a129.22,129.22,0,0,0-28.85,44.75,162.28,162.28,0,0,0-10.89,56.82v3.53q0,77.14,35,118.64t101,41.51h10.6a135,135,0,0,0,28-6.18q15.6-5,25-14.43-3.54,28.26-18,57.7A407,407,0,0,1,1345.23,1026.83Zm29.44-127.77q-17.66,7.06-31.79,8.24h-3.53q-24.73,0-40.33-13.24a91.72,91.72,0,0,1-24.44-33,158.14,158.14,0,0,1-12.07-43.28,329,329,0,0,1-3.23-44.75,228.18,228.18,0,0,1,3.83-40.62,134.94,134.94,0,0,1,12.66-38.27,82.68,82.68,0,0,1,23.55-28.26q14.72-11.18,36.5-11.19,17.67,0,31.5,13.25a114.38,114.38,0,0,1,23.26,32.38A186.81,186.81,0,0,1,1405,741.56a215.14,215.14,0,0,1,5.59,39.74v15.31q0,21.19-1.18,40.63a348.48,348.48,0,0,1-5.3,41.81A78.42,78.42,0,0,1,1374.67,899.06Z" transform="translate(-407.39 -112.9)"/>
    <path class="cls-1" d="M1185,380.06q14.88,0,21.31,13.13l13.71-7q-12-19.55-37.64-19.55-45.83,0-45.82,50.2v80.85q0,45.83,45.82,45.82,37.65,0,41.73-42.61l-13.42-2.34q-2.92,32.39-24.81,32.4-22.76-.28-22.76-32.62V417Q1163.11,380.06,1185,380.06Z" transform="translate(-407.39 -112.9)"/>
    <path class="cls-1" d="M1608.54,686.16c-1.3,292.4-238.71,529-531.42,529-293.51,0-531.45-237.93-531.45-531.44s237.94-531.45,531.45-531.45a529.5,529.5,0,0,1,359.25,139.84c-109-110.64-260.51-179.25-428.08-179.25-331.87,0-600.9,269-600.9,600.91s269,600.9,600.9,600.9,600.91-269,600.91-600.9C1609.2,704.53,1609,695.32,1608.54,686.16Z" transform="translate(-407.39 -112.9)"/>
    <path class="cls-1" d="M1237.34,512.48q0,14.18,8.63,22.75t23.9,8.57q20.75,0,31.43-19.47h.4v19.09h16.36V470.79q0-40.41-36-40.41c-13.11,0-24.52,6.24-34.73,12.84v15.1Q1262.19,445,1280.65,445q21.06,0,21.06,27.61l-30.64,4.55Q1237.34,482.11,1237.34,512.48Zm64.36-26v10.79q0,13.86-7.94,22.9a25.58,25.58,0,0,1-20.11,9q-8.88,0-14.22-5a17,17,0,0,1-5.34-13q0-10.9,5.79-15.18t17.16-6Z" transform="translate(-407.39 -112.9)"/>
    <path class="cls-1" d="M1391.53,382.58a25.07,25.07,0,0,1,12.51,3.1v-17q-5-2.07-13.66-2.07-16,0-26.63,10.73c-7.12,7.16-10.68,15-10.68,27.3v19.05h-26.41v16.07h26.41l.24,103.63H1372l-.24-103.63h27.55V423.72h-27.55V405.59C1371.79,389,1378.37,382.58,1391.53,382.58Z" transform="translate(-407.39 -112.9)"/>
    <polygon class="cls-1" points="1039.51 299.5 1066.55 264.79 1049.42 264.79 1026.41 299.5 1039.51 299.5"/>
    <path class="cls-1" d="M1415.78,446.3q-14,15.92-14,41.21,0,26.77,12.8,41.52t35.19,14.76a60.78,60.78,0,0,0,36.84-12.23V517.13q-15,12.06-32.81,12.06-15.9,0-25-9.84t-9.5-27.93H1494v-9.1q0-24.44-11.35-38.19t-32.1-13.75Q1429.77,430.38,1415.78,446.3Zm53.77,7q7,8.36,7.07,23.38h-57.07q2-14.18,10.32-23A27,27,0,0,1,1450.2,445Q1462.59,445,1469.55,453.33Z" transform="translate(-407.39 -112.9)"/>
  </g>
</svg>
